<?xml version="1.0" standalone="no"?><!DOCTYPE svg PUBLIC "-//W3C//DTD SVG 1.1//EN" "http://www.w3.org/Graphics/SVG/1.1/DTD/svg11.dtd"><svg t="1780804954892" class="icon" viewBox="0 0 1325 1024" version="1.1" xmlns="http://www.w3.org/2000/svg" p-id="1463" xmlns:xlink="http://www.w3.org/1999/xlink" width="258.7890625" height="200"><path d="M418.635294 298.164706H647.529412v67.764706H486.4v63.247059H647.529412v183.717647H486.4v76.8H647.529412v60.235294H418.635294V545.129412h165.647059v-55.717647h-165.647059V298.164706z m487.905882 0v191.247059h-165.647058v55.717647h165.647058v206.305882H677.647059v-60.235294h162.635294v-76.8H677.647059V429.176471h162.635294v-63.247059H677.647059v-67.764706h228.894117zM240.941176 512C240.941176 278.588235 429.176471 90.352941 662.588235 90.352941s421.647059 188.235294 421.647059 421.647059-188.235294 421.647059-421.647059 421.647059-421.647059-188.235294-421.647059-421.647059z m421.647059 367.435294c203.294118 0 367.435294-165.647059 367.435294-367.435294S865.882353 144.564706 662.588235 144.564706 295.152941 308.705882 295.152941 512 459.294118 879.435294 662.588235 879.435294z" fill="#C42B25" p-id="1464"></path></svg>