<svg width="120" height="120" viewBox="0 0 120 120" fill="none" xmlns="http://www.w3.org/2000/svg">
  <defs>
    <linearGradient id="lg" x1="20" y1="8" x2="100" y2="112">
      <stop stop-color="#6366f1"/>
      <stop offset="1" stop-color="#a855f7"/>
    </linearGradient>
  </defs>
  <path d="M60 8L14 30v28c0 26.22 18.5 50.74 46 58 27.5-7.26 46-31.78 46-58V30L60 8z" fill="url(#lg)" opacity="0.10"/>
  <path d="M60 14L20 33v25c0 23.54 16.6 45.56 40 52 23.4-6.44 40-28.46 40-52V33L60 14z" stroke="url(#lg)" stroke-width="4" stroke-linejoin="round"/>
  <circle cx="60" cy="62" r="26" fill="url(#lg)" opacity="0.06"/>
  <circle cx="60" cy="62" r="26" stroke="url(#lg)" stroke-width="3"/>
  <path d="M72 45c-3.5-3-8-5-13-5-10 0-18 8-18 18s8 18 18 18c5 0 9.5-2 13-5" stroke="url(#lg)" stroke-width="3.5" stroke-linecap="round" fill="none"/>
</svg>
