<svg width="48" height="48" viewBox="0 0 48 48" fill="none" xmlns="http://www.w3.org/2000/svg">
  <defs>
    <linearGradient id="flg" x1="8" y1="4" x2="40" y2="44">
      <stop stop-color="#6366f1"/>
      <stop offset="1" stop-color="#a855f7"/>
    </linearGradient>
  </defs>
  <path d="M24 4L8 14v12c0 11 7.5 21.5 16 26 8.5-4.5 16-15 16-26V14L24 4z" fill="url(#flg)" opacity="0.10"/>
  <path d="M24 6L10 15v11c0 10 6.8 19.5 14 23.5 7.2-4 14-13.5 14-23.5V15L24 6z" stroke="url(#flg)" stroke-width="2.5" stroke-linejoin="round"/>
  <circle cx="24" cy="26" r="14" fill="url(#flg)" opacity="0.06"/>
  <circle cx="24" cy="26" r="14" stroke="url(#flg)" stroke-width="2"/>
  <path d="M32 18c-2-2-4.5-3-7-3-5.5 0-10 4.5-10 10s4.5 10 10 10c2.5 0 5-1 7-3" stroke="url(#flg)" stroke-width="2.5" stroke-linecap="round" fill="none"/>
</svg>
